<svg width="18" height="27" viewBox="0 0 20 30" fill="none" xmlns="http://www.w3.org/2000/svg">
<path d="M15.9107 0.128321C16.0886 0.234699 16.2263 0.400162 16.3013 0.597677C16.3763 0.795193 16.3841 1.01309 16.3234 1.21576L13.049 12.1876H19.0906C19.2681 12.1876 19.4418 12.2411 19.5902 12.3417C19.7386 12.4422 19.8551 12.5854 19.9255 12.7535C19.9959 12.9216 20.017 13.1072 19.9862 13.2875C19.9555 13.4679 19.8742 13.635 19.7524 13.7682L5.20745 29.7048C5.06671 29.8591 4.87944 29.9597 4.67615 29.9902C4.47285 30.0207 4.26553 29.9793 4.08798 29.8728C3.91042 29.7662 3.7731 29.6008 3.69839 29.4035C3.62369 29.2061 3.616 28.9885 3.67659 28.7861L6.95102 17.8123H0.909421C0.731872 17.8124 0.55819 17.7588 0.409813 17.6583C0.261436 17.5577 0.144861 17.4146 0.0744783 17.2465C0.00409546 17.0784 -0.0170138 16.8927 0.0137562 16.7124C0.0445261 16.5321 0.125828 16.365 0.247626 16.2318L14.7926 0.295186C14.9331 0.141069 15.1201 0.0405171 15.3231 0.00988123C15.5261 -0.0207546 15.7332 0.0203269 15.9107 0.126446V0.128321Z" fill="white"/>
</svg>
